<svg xmlns="http://www.w3.org/2000/svg" xmlns:xlink="http://www.w3.org/1999/xlink" version="1.1" x="0px" y="0px" viewBox="0 0 100 125" enable-background="new 0 0 100 100" xml:space="preserve"><path d="M50.638,67.768c-0.586-0.586-1.535-0.586-2.121,0l-6.32,6.32l-6.32-6.32c-0.586-0.586-1.535-0.586-2.121,0  c-0.586,0.585-0.586,1.535,0,2.121l6.32,6.32l-6.32,6.32c-0.586,0.585-0.586,1.535,0,2.121c0.293,0.293,0.677,0.439,1.061,0.439  s0.768-0.146,1.061-0.439l6.32-6.32l6.32,6.32c0.293,0.293,0.677,0.439,1.061,0.439s0.768-0.146,1.061-0.439  c0.586-0.586,0.586-1.536,0-2.121l-6.32-6.32l6.32-6.32C51.224,69.303,51.224,68.353,50.638,67.768z M54.759,49.735  c-0.626,0.576-0.667,1.547-0.086,2.171c0.308,0.327,0.723,0.493,1.139,0.493c0.378,0,0.755-0.134,1.053-0.408l5-4.574l3.834,2.331  c0.729,0.443,1.686,0.218,2.133-0.505c0.448-0.723,0.219-1.669-0.511-2.111l-4.835-2.939c-0.591-0.361-1.354-0.287-1.864,0.18  L54.759,49.735z M27.116,2.854l-4.302,15.396H8.507V83.59h14.122c2.994,7.908,10.624,13.557,19.568,13.557  c8.943,0,16.573-5.648,19.566-13.557h14.052v-4.635l15.655-59.377l0.022-0.082L27.116,2.854z M31.146,9.665l33.204,8.584H28.81  L31.146,9.665z M42.197,94.146c-9.891,0-17.938-8.047-17.938-17.938s8.047-17.938,17.938-17.938c9.89,0,17.936,8.047,17.936,17.938  S52.087,94.146,42.197,94.146z M70.113,64.653H59.64c-3.754-5.647-10.168-9.382-17.442-9.382c-7.275,0-13.689,3.734-17.443,9.382  H14.21V52.212c0.06-0.033,0.123-0.07,0.182-0.113l19.1-13.991l3.368,3.193c0.62,0.587,1.601,0.565,2.195-0.047  c0.59-0.612,0.567-1.585-0.05-2.171l-4.316-4.089c-0.545-0.517-1.388-0.569-1.993-0.125L14.21,48.412V46.23  c0.046-0.028,0.091-0.059,0.134-0.091l18.334-13.766l18.587,16.219c0.296,0.257,0.661,0.384,1.028,0.384  c0.405,0,0.813-0.158,1.116-0.472l7.66-7.893l9.044,5.64V64.653z M70.113,42.622l-8.461-5.275c-0.622-0.388-1.435-0.289-1.943,0.236  l-7.507,7.734L33.776,29.241c-0.554-0.483-1.375-0.514-1.962-0.072L14.21,42.387V23.896h55.903V42.622z M75.815,56.52V21.214  l8.797,2.274L75.815,56.52z"/>
</svg>
