<svg xmlns="http://www.w3.org/2000/svg" xmlns:xlink="http://www.w3.org/1999/xlink" version="1.1" x="0px" y="0px" viewBox="0 0 34 42.5" enable-background="new 0 0 34 34" xml:space="preserve"><g><rect x="14.875" y="-4.037" transform="matrix(0.7072 0.707 -0.707 0.7072 16.9958 -7.0415)" width="4.249" height="42.074"/><g><polygon points="23.763,17.248 15.517,25.494 26.918,25.486   "/><path d="M12.042,9.917c-1.174,0-2.125,0.951-2.125,2.125c0,1.175,0.952,2.125,2.125,2.125c0.399,0,0.769-0.117,1.089-0.308    l0.728-0.728c0.19-0.319,0.309-0.689,0.309-1.089C14.167,10.867,13.215,9.917,12.042,9.917z"/><path d="M29.75,11.261l0.002,18.489H11.261L7.011,34h22.741C32.098,34,34,32.097,34,29.75V7.012L29.75,11.261z"/><path d="M4.249,4.25h18.489L26.989,0H4.249C1.902,0,0,1.902,0,4.251v22.737l4.249-4.25V4.25z"/><path d="M13.858,13.13l-0.728,0.728C13.43,13.678,13.679,13.429,13.858,13.13z"/></g></g><text x="0" y="49" fill="#000000" font-size="5px" font-weight="bold" font-family="'Helvetica Neue', Helvetica, Arial-Unicode, Arial, Sans-serif">Created by Didzis Gruznovs</text><text x="0" y="54" fill="#000000" font-size="5px" font-weight="bold" font-family="'Helvetica Neue', Helvetica, Arial-Unicode, Arial, Sans-serif">from the Noun Project</text></svg>